<svg width="36" height="36" viewBox="0 0 36 36" fill="none" xmlns="http://www.w3.org/2000/svg">
<g id="Group 269">
<path id="Vector" d="M18.1642 34.6434C27.4469 34.6434 34.972 27.1182 34.972 17.8356C34.972 8.55294 27.4469 1.02783 18.1642 1.02783C8.88155 1.02783 1.35645 8.55294 1.35645 17.8356C1.35645 27.1182 8.88155 34.6434 18.1642 34.6434Z" fill="#D8D8D8" stroke="#E19270" stroke-linecap="round" stroke-linejoin="round"/>
<path id="Vector_2" d="M18.3661 19.1466C18.2484 19.1298 18.0971 19.1298 17.9627 19.1466C15.0045 19.0458 12.6514 16.6255 12.6514 13.6504C12.6514 10.6082 15.1054 8.13748 18.1644 8.13748C21.2066 8.13748 23.6773 10.6082 23.6773 13.6504C23.6605 16.6255 21.3242 19.0458 18.3661 19.1466Z" fill="#F5A37C"/>
<path id="Vector_3" d="M29.4928 30.2399C26.501 32.9796 22.5344 34.6435 18.1644 34.6435C13.7944 34.6435 9.82773 32.9796 6.83594 30.2399C7.00402 28.66 8.01248 27.1136 9.81092 25.9035C14.4163 22.8445 21.9461 22.8445 26.5178 25.9035C28.3163 27.1136 29.3248 28.66 29.4928 30.2399Z" fill="#E19270"/>
</g>
</svg>
